<svg width="1383" height="333" viewBox="0 0 1383 333" fill="none" xmlns="http://www.w3.org/2000/svg">
    <path fill-rule="evenodd" clip-rule="evenodd" d="M66.9818 299.488H16.3432C7.31711 299.488 0 292.035 0 282.841V112.997C0 112.143 0.0894533 111.31 0.259329 110.507C1.23184 103.024 4.93909 97.5815 11.3812 94.1808L141.675 2.92992C147.253 -0.97664 154.618 -0.97664 160.195 2.92992L290.517 94.2062C297.22 97.7087 300.96 103.434 301.757 111.356C301.82 111.818 301.857 112.288 301.866 112.765C301.916 113.666 301.93 114.593 301.908 115.547C301.901 115.86 301.888 116.16 301.868 116.448V282.841C301.868 292.035 294.551 299.488 285.525 299.488H155.958V270.965H273.876V117.162L150.935 31.0552L27.9924 117.158V270.965H66.9818V299.488ZM273.962 114.785L274.005 115.084C273.98 114.886 273.959 114.688 273.942 114.489L273.941 114.48C273.93 114.419 273.921 114.359 273.914 114.301L273.914 114.308L273.938 114.542L273.938 114.544L273.962 114.785ZM273.933 114.639L273.925 114.719C273.925 114.774 273.925 114.832 273.923 114.893C273.924 114.842 273.926 114.788 273.929 114.731L273.933 114.639ZM27.861 115.395L27.6221 116.523C27.7458 115.939 27.8386 115.35 27.9005 114.758C27.9414 114.614 27.9718 114.482 27.9924 114.364V114.383L27.861 115.395Z" fill="#F47A20"/>
    <path d="M74.3925 126.388C72.5295 118.744 77.1009 111.008 84.603 109.11C92.105 107.212 99.6968 111.87 101.56 119.514C107.079 142.161 127.138 158.358 150.375 158.358C173.816 158.358 194.004 141.876 199.322 118.959C201.1 111.294 208.64 106.549 216.163 108.361C223.685 110.173 228.341 117.856 226.563 125.521C218.276 161.238 186.867 186.88 150.375 186.88C114.203 186.88 82.9939 161.682 74.3925 126.388Z" fill="#F47A20"/>
    <path fill-rule="evenodd" clip-rule="evenodd" d="M136.963 187.435C136.963 179.558 143.229 173.173 150.959 173.173C158.689 173.173 164.955 179.558 164.955 187.435V234.293C164.955 242.17 158.689 248.555 150.959 248.555C143.229 248.555 136.963 242.17 136.963 234.293V187.435Z" fill="#F47A20"/>
    <path fill-rule="evenodd" clip-rule="evenodd" d="M143.957 276.797C148.926 270.763 157.754 269.976 163.675 275.039C169.597 280.102 170.369 289.097 165.4 295.131L138.411 327.905C133.442 333.939 124.614 334.726 118.692 329.663C112.771 324.6 111.999 315.605 116.967 309.571L143.957 276.797Z" fill="#F47A20"/>
    <path fill-rule="evenodd" clip-rule="evenodd" d="M67.9816 299.488C75.7115 299.488 81.9778 293.103 81.9778 285.227C81.9778 277.35 75.7115 270.965 67.9816 270.965C60.2517 270.965 53.9854 277.35 53.9854 285.227C53.9854 293.103 60.2517 299.488 67.9816 299.488Z" fill="#F47A20"/>
    <path fill-rule="evenodd" clip-rule="evenodd" d="M155.958 299.488C163.688 299.488 169.954 293.103 169.954 285.227C169.954 277.35 163.688 270.965 155.958 270.965C148.228 270.965 141.962 277.35 141.962 285.227C141.962 293.103 148.228 299.488 155.958 299.488Z" fill="#F47A20"/>
    <path fill-rule="evenodd" clip-rule="evenodd" d="M523.483 102.885C523.483 103.649 523.233 104.159 522.983 104.923L484.993 193.292C480.245 204.497 475.246 209.591 469.748 211.883V283.189C469.748 285.991 467.748 288.283 464.999 288.283H440.006C437.256 288.283 435.257 285.991 435.257 283.189V211.883C429.758 209.591 424.76 204.497 420.011 193.292L382.271 104.923C382.021 104.159 381.771 103.395 381.771 102.885C381.771 100.848 383.271 99.0654 385.77 99.0654H413.513C415.762 99.0654 417.512 101.103 418.262 103.14L448.253 179.031C450.003 183.36 451.503 184.124 452.502 184.124C453.752 184.124 455.252 183.36 457.001 179.031L486.993 103.14C487.743 101.103 489.492 99.0654 491.742 99.0654H519.234C521.734 99.0654 523.483 100.848 523.483 102.885ZM793.41 285.227C793.41 287.009 792.41 288.283 790.411 288.283H759.919C757.17 288.283 756.17 285.736 754.92 283.189L718.93 215.193H715.431C708.933 215.193 698.935 214.429 693.187 214.175V283.189C693.187 285.991 691.188 288.283 688.438 288.283H663.445C660.696 288.283 658.446 285.991 658.446 283.189V107.979C658.446 102.885 661.446 101.103 666.444 100.339C679.441 98.3014 697.186 97.028 715.431 97.028C753.921 97.028 787.411 111.035 787.411 154.583V156.875C787.411 183.869 774.165 200.677 753.671 208.827L792.91 283.189C793.41 283.953 793.41 284.717 793.41 285.227ZM752.921 156.875V154.583C752.921 135.483 740.424 127.333 715.431 127.333C710.182 127.333 697.686 127.843 693.187 128.352V185.652C697.186 185.907 711.182 186.416 715.431 186.416C741.174 186.416 752.921 179.285 752.921 156.875ZM934.372 221.815C934.372 225.889 932.872 228.181 929.373 228.181H847.895V228.945C847.895 243.716 853.893 261.288 877.887 261.288C896.132 261.288 913.377 259.76 923.875 258.741H924.624C927.124 258.741 929.123 260.015 929.123 262.561V279.369C929.123 283.444 928.373 285.227 923.875 285.991C907.629 289.047 897.882 290.32 875.388 290.32C850.394 290.32 814.904 276.568 814.904 226.399V207.553C814.904 167.825 836.648 142.868 874.888 142.868C913.377 142.868 934.372 169.608 934.372 207.553V221.815ZM901.131 204.243V203.224C901.131 183.36 890.384 171.9 874.888 171.9C859.392 171.9 848.145 183.105 848.145 203.224V204.243H901.131ZM1078.08 282.935C1078.08 285.736 1075.83 288.283 1073.08 288.283H1050.09C1047.34 288.283 1045.09 285.736 1045.09 282.935V199.913C1045.09 177.757 1043.09 171.391 1023.85 171.391C1015.35 171.391 1006.1 174.956 995.605 180.559V282.935C995.605 285.736 993.356 288.283 990.606 288.283H967.613C964.863 288.283 962.614 285.736 962.614 282.935V149.744C962.614 146.943 964.863 144.651 967.613 144.651H989.357C992.106 144.651 994.355 146.943 994.355 149.744V155.092C1008.85 145.669 1018.35 142.868 1034.84 142.868C1070.83 142.868 1078.08 167.571 1078.08 199.913V282.935ZM1189.3 283.953C1189.3 286.5 1187.8 288.028 1184.55 288.537C1178.56 289.556 1173.06 290.32 1167.56 290.32C1139.32 290.32 1127.82 283.953 1127.82 249.828V169.863L1104.33 166.297C1101.58 165.788 1099.33 164.005 1099.33 161.204V149.744C1099.33 146.943 1101.58 144.651 1104.33 144.651H1127.82V123.768C1127.82 120.967 1130.07 119.184 1132.82 118.675L1156.06 114.6H1157.06C1159.31 114.6 1161.06 115.873 1161.06 118.42V144.651H1183.55C1186.3 144.651 1188.55 146.943 1188.55 149.744V164.769C1188.55 167.571 1186.3 169.863 1183.55 169.863H1161.06V249.828C1161.06 262.561 1161.81 264.089 1170.81 264.089H1184.05C1187.3 264.089 1189.3 265.363 1189.3 267.909V283.953ZM1316.27 283.189C1316.27 285.991 1314.02 288.283 1311.27 288.283H1290.03C1287.28 288.283 1285.03 285.991 1285.03 283.189V279.115C1273.53 286.245 1261.78 290.32 1249.79 290.32C1229.04 290.32 1206.55 282.171 1206.55 247.791V246.772C1206.55 217.74 1224.04 202.715 1267.53 202.715H1283.28V191.509C1283.28 174.956 1276.03 170.881 1261.28 170.881C1245.29 170.881 1228.79 171.9 1220.54 172.919H1219.29C1216.8 172.919 1214.8 172.155 1214.8 168.589V152.291C1214.8 149.489 1216.3 147.707 1219.54 146.943C1229.54 144.905 1244.04 142.868 1261.28 142.868C1296.77 142.868 1316.27 158.912 1316.27 191.509V283.189ZM1283.28 256.449V225.125H1267.53C1244.79 225.125 1239.79 232.511 1239.79 246.772V247.791C1239.79 260.269 1245.29 263.58 1257.78 263.58C1266.78 263.58 1276.03 260.524 1283.28 256.449ZM1383 282.935C1383 285.736 1381 288.283 1378.25 288.283H1355.01C1352.26 288.283 1350.01 285.736 1350.01 282.935V99.5747C1350.01 96.7734 1352.26 94.4814 1355.01 94.4814H1378.25C1381 94.4814 1383 96.7734 1383 99.5747V282.935Z" fill="#F47A20"/>
    <path fill-rule="evenodd" clip-rule="evenodd" d="M597.964 125.828C597.964 128.539 595.786 130.758 593.125 130.758H569.658C566.996 130.758 564.577 128.539 564.577 125.828V104.134C564.577 101.423 566.996 99.2039 569.658 99.2039H593.125C595.786 99.2039 597.964 101.423 597.964 104.134V125.828ZM597.238 283.106C597.238 285.818 595.061 288.283 592.399 288.283H570.141C567.48 288.283 565.303 285.818 565.303 283.106V154.177C565.303 151.466 567.48 149.247 570.141 149.247H592.399C595.061 149.247 597.238 151.466 597.238 154.177V283.106Z" fill="#F47A20"/>
</svg>
